# xmcd
# Track frame offsets:
# 182
# 8550
# 20415
# 29720
# 40217
# 50972
# 60320
# 70035
# 79540
# 87215
# 102740
# 109507
# 117285
# 127807
# 138965
# 150372
# 158892
# 168802
# 175580
#
# Disc length: 2500 seconds
# Revision: 0
# Processed by: cddbd v1.4PL0 Copyright (c) Steve Scherf et al.
# Submitted via: VisiTrax 2.9.5.181 - For more info visit www.synapsa.com
#
DISCID=e309c213
DTITLE=Various Canadian Artists - Canadian Fiddle
DYEAR=1900
DGENRE=Fiddle/OldTime
TTITLE0=Mom's Waltz - Johnny Mooring
TTITLE1=Joys of Quebec - June Eikhard
TTITLE2=Little Burnt Potato - Johnny Mooring
TTITLE3=Stove Pipe - June Eikhard, Crooked
TTITLE4=Blue Skirt Waltz - June Eikhard
TTITLE5=Lightning Hornpipe - Graham Townsend
TTITLE6=St Ann's Reel - Stan Rodgers
TTITLE7=Sugar in The Gourd - Vic Mullen
TTITLE8=Morning Star Waltz - Bill Guest
TTITLE9=Medley of Antigonish Polkas - Winston Scotty Fitzgerald
TTITLE10=Wetphalia Waltz - Vic Mullen
TTITLE11=Pat Leonard's Breakdoen - Reg Hill
TTITLE12=Buckingham Reel - Graham Townsend
TTITLE13=Highland Jig - June Eikhard
TTITLE14=Little Judique Reel - Joe Murphy
TTITLE15=Alex and Maureen's Two Step - Graham Townsend
TTITLE16=The Devil's Dream - Reg Hill
TTITLE17=Carol Kennedy's Waltz - Johnny Mooring
TTITLE18=Mrs Douglas Henderson Strathspey - Winston Scotty Fitzgerald
EXTD=HCD 3302
EXTT0=
EXTT1=
EXTT2=
EXTT3=
EXTT4=
EXTT5=
EXTT6=
EXTT7=
EXTT8=
EXTT9=
EXTT10=
EXTT11=
EXTT12=
EXTT13=
EXTT14=
EXTT15=
EXTT16=
EXTT17=
EXTT18=
PLAYORDER=
